<svg width="24" height="24" viewBox="0 0 24 24" fill="none" xmlns="http://www.w3.org/2000/svg">
  <path d="M7 14C7 10.134 9.686 7 13 7C16.314 7 19 10.134 19 14C19 15.657 18.4 17.17 17.4 18.333C17.4 18.333 17 19 17 20H9C9 19 8.6 18.333 8.6 18.333C7.6 17.17 7 15.657 7 14Z" fill="#7C3AED"/>
  <rect x="9" y="20" width="6" height="2" rx="1" fill="#7C3AED"/>
  <path d="M10 13C10.5 11.5 11.5 12.5 12 11.5C12.5 10.5 13.5 11.5 14 11" stroke="white" stroke-width="1.4" stroke-linecap="round" fill="none"/>
  <path d="M10 15.5C10.8 14.5 11.5 15.5 12.5 14.5C13 14 13.5 14.5 14 14" stroke="white" stroke-width="1.4" stroke-linecap="round" fill="none"/>
  <circle cx="12" cy="4.5" r="1.2" fill="#7C3AED"/>
  <path d="M12 6V7" stroke="#7C3AED" stroke-width="1.4" stroke-linecap="round"/>
</svg>
